<svg width="61" height="30" viewBox="0 0 61 30" fill="none" xmlns="http://www.w3.org/2000/svg">
<path d="M56.6954 17.4723C56.3872 17.4723 56.0953 17.748 56.0953 18.04V19.4349C56.0953 19.808 56.3872 20.0513 56.6792 20.0513H59.0799V20.8786H57.182V20.538H56.0628V21.1219C56.0628 21.4301 56.3386 21.7383 56.663 21.7383H59.5827C59.8747 21.7383 60.1666 21.495 60.1666 21.1057V19.7756C60.1666 19.3863 59.8747 19.1592 59.5665 19.143H57.2145V18.3482H59.0636V18.6239H60.118V18.0562C60.1342 17.7805 59.8584 17.4561 59.5178 17.4723H56.6954Z" fill="#1D1D1B"/>
<path fill-rule="evenodd" clip-rule="evenodd" d="M1.98334 17.4723L0.166626 21.7383H1.22096L1.61026 20.8137H3.71894L4.10823 21.7383H5.22746L3.42697 17.4723H1.98334ZM1.96711 19.9865L2.6646 18.332L3.36208 19.9865H1.96711Z" fill="#1D1D1B"/>
<path d="M12.624 21.7383H13.4189L14.5381 19.3376V21.7383H15.5438V17.4723H14.3596L13.0296 20.5704L11.7157 17.4723H10.4991V21.7383H11.5048V19.3376L12.624 21.7383Z" fill="#1D1D1B"/>
<path d="M35.7871 21.7383H34.9923L33.873 19.3376V21.7383H32.8674V17.4723H34.0839L35.3978 20.5704L36.7116 17.4723H37.8957V21.7383H36.9063V19.3376L35.7871 21.7383Z" fill="#1D1D1B"/>
<path fill-rule="evenodd" clip-rule="evenodd" d="M46.3142 21.7383L48.1147 17.4723H49.5584L51.3751 21.7383H50.2558L49.8666 20.8137H47.7579L47.3686 21.7383H46.3142ZM48.796 18.332L48.0985 19.9865H49.4935L48.796 18.332Z" fill="#1D1D1B"/>
<path d="M27.1414 18.3482V17.4723H23.1998V21.7383H27.1414V20.8624H24.2704V20.0676H26.6711V19.2241H24.2542V18.3482H27.1414Z" fill="#1D1D1B"/>
<path fill-rule="evenodd" clip-rule="evenodd" d="M5.64918 17.4723V21.7383H6.73596V20.2946H9.16905C9.47724 20.2946 9.73677 20.1 9.75299 19.6945V18.1049C9.75299 17.748 9.46102 17.4723 9.10416 17.4723H5.64918ZM8.76351 18.3157H6.73594V19.4187H8.76351V18.3157Z" fill="#1D1D1B"/>
<path d="M52.9809 17.4723H51.8941V21.7383H55.706V20.8462H52.9809V17.4723Z" fill="#1D1D1B"/>
<path d="M41.2209 21.7383V17.4723H42.4375L44.6759 20.4082V17.4723H45.7627V21.7383H44.5786L42.2915 18.7861V21.7383H41.2209Z" fill="#1D1D1B"/>
<path d="M40.0855 17.4723H39.0312V21.7383H40.0855V17.4723Z" fill="#1D1D1B"/>
<path d="M18.2364 18.3806V17.4723H22.6971V18.3806H21.0263V21.7383H19.9071V18.3806H18.2364Z" fill="#1D1D1B"/>
<path fill-rule="evenodd" clip-rule="evenodd" d="M27.8551 17.4723V21.7383H28.9095V20.1811H30.1098L30.937 21.7383H32.0725L31.229 20.1811H31.3263C31.6508 20.1487 31.8941 19.9053 31.8941 19.5485V18.1049C31.8941 17.748 31.6021 17.4723 31.2452 17.4723H27.8551ZM30.9209 18.3482H28.8933V19.3214H30.9209V18.3482Z" fill="#1D1D1B"/>
<path d="M37.6857 14.9856V12.6985H38.0588V14.9856H37.6857ZM23.5251 14.9856V13.2987H23.8982V15.0018H23.5251V14.9856ZM23.5251 13.0878V12.6823H23.8982V13.0878H23.5251ZM22.0491 8.40002L13.6468 13.2338V13.6879L22.0491 9.55169V8.40002ZM25.3581 9.74634V8.59467L20.4594 11.0278V11.6766L25.3581 9.74634ZM11.9598 15.5533V15.1965L17.41 12.5038V13.1689L11.9598 15.5533ZM46.8503 13.9475C46.8503 13.8664 46.8341 13.7853 46.7692 13.6879C46.7044 13.5906 46.607 13.542 46.4773 13.542C46.3475 13.542 46.2502 13.5906 46.1691 13.7042C46.1042 13.7853 46.1042 13.8664 46.088 13.9475H46.8503ZM47.2234 14.499C47.1099 14.872 46.8017 15.018 46.4773 15.018C45.9258 15.018 45.6987 14.5639 45.6987 14.1421C45.6987 13.6393 45.9907 13.25 46.4935 13.25C47.045 13.25 47.2721 13.6879 47.2559 14.1746H46.1042C46.1042 14.2881 46.1042 14.4179 46.2015 14.5639C46.2664 14.6774 46.38 14.7261 46.5097 14.7261C46.7855 14.7261 46.8504 14.5476 46.8828 14.4503L47.2234 14.499ZM44.9688 13.9961C44.9688 13.8501 44.9525 13.7853 44.8714 13.6879C44.8066 13.6068 44.7092 13.5582 44.6119 13.5582C44.2713 13.5582 44.2551 14.0124 44.2551 14.1421C44.2551 14.2557 44.2551 14.7098 44.6119 14.7098C44.7903 14.7098 44.9688 14.5476 44.9688 14.2719V13.9961ZM44.985 14.9856V14.645C44.9363 14.7585 44.8228 15.018 44.4821 15.018C43.8982 15.018 43.8495 14.2881 43.8495 14.1097C43.8495 13.7853 43.9955 13.2175 44.5146 13.2175C44.6768 13.2175 44.8552 13.2662 44.9688 13.5095V12.6823H45.3418V14.9694L44.985 14.9856ZM43.1358 14.1259C42.8925 14.1259 42.7465 14.1583 42.6654 14.1746C42.5843 14.1908 42.3897 14.2557 42.3897 14.4665C42.3897 14.5314 42.4221 14.7261 42.6817 14.7261C43.0547 14.7261 43.1196 14.4017 43.1196 14.2719V14.1259H43.1358ZM43.5089 14.645C43.5089 14.8072 43.5413 14.9369 43.5576 14.9856H43.2007C43.1521 14.8558 43.1521 14.7747 43.1358 14.645C43.0872 14.7585 42.9736 15.018 42.5681 15.018C42.2113 15.018 42.0166 14.7747 42.0166 14.499C42.0166 13.9313 42.779 13.915 43.1521 13.915V13.7853C43.1521 13.5744 42.9574 13.5257 42.7952 13.5257C42.4546 13.5257 42.4221 13.7042 42.4059 13.7853L42.0815 13.7366C42.1464 13.3473 42.5032 13.25 42.8439 13.25C43.0223 13.25 43.2332 13.2662 43.3629 13.3798C43.5413 13.5257 43.5414 13.6717 43.5414 13.8826V14.645H43.5089ZM40.8974 13.2987H41.238V13.7042C41.2867 13.5744 41.4002 13.2338 41.7571 13.25V13.6555C41.676 13.6555 41.53 13.6555 41.4002 13.7853C41.3354 13.8664 41.2705 14.0286 41.2705 14.2881V14.9694H40.8974C40.8974 14.9856 40.8974 13.2987 40.8974 13.2987ZM39.7133 14.9856V13.0391H39.1131V12.6823H40.7676V13.0391H40.1675V14.9856H39.7133ZM36.7936 14.1259C36.5503 14.1259 36.4043 14.1583 36.3232 14.1746C36.2421 14.1908 36.0474 14.2557 36.0474 14.4665C36.0474 14.5314 36.0799 14.7261 36.3394 14.7261C36.7125 14.7261 36.7774 14.4017 36.7774 14.2719V14.1259H36.7936ZM37.1667 14.645C37.1667 14.8072 37.1991 14.9369 37.2153 14.9856H36.8585C36.8098 14.8558 36.8098 14.7747 36.7936 14.645C36.7449 14.7585 36.6314 15.018 36.2259 15.018C35.869 15.018 35.6744 14.7747 35.6744 14.499C35.6744 13.9313 36.4367 13.915 36.8098 13.915V13.7853C36.8098 13.5744 36.6152 13.5257 36.4529 13.5257C36.1123 13.5257 36.0799 13.7042 36.0637 13.7853L35.7392 13.7366C35.8041 13.3473 36.161 13.25 36.5016 13.25C36.68 13.25 36.8909 13.2662 37.0207 13.3798C37.1991 13.5257 37.1991 13.6717 37.1991 13.8826L37.1667 14.645ZM34.2794 14.2719C34.2794 14.5963 34.4416 14.7098 34.6362 14.7098C34.9931 14.7098 34.9931 14.2881 34.9931 14.0935C34.9931 13.915 34.9607 13.542 34.6362 13.542C34.474 13.542 34.2794 13.6555 34.2794 14.0124V14.2719ZM33.9063 14.9856V12.6985H34.2794V13.5257C34.3605 13.3798 34.474 13.2175 34.7498 13.2175C35.0742 13.2175 35.3986 13.4771 35.3986 14.1097C35.3986 14.353 35.3499 14.5801 35.204 14.7747C35.0742 14.9532 34.912 15.018 34.7011 15.018C34.3929 15.018 34.2632 14.8558 34.1821 14.7098L34.0847 14.9856H33.9063ZM32.7709 13.5744C32.4627 13.5744 32.3816 13.8826 32.3816 14.1421C32.3816 14.2232 32.3816 14.7098 32.7547 14.7098C33.1115 14.7098 33.1439 14.3043 33.1439 14.1259C33.1439 13.8339 33.0628 13.5744 32.7709 13.5744ZM32.7547 15.018C32.1869 15.018 31.9761 14.5152 31.9761 14.1259C31.9761 13.6717 32.2518 13.25 32.7709 13.25C33.2737 13.25 33.5495 13.6717 33.5495 14.1259C33.5495 14.7098 33.1764 15.018 32.7547 15.018ZM31.2299 14.9856V12.6985H31.603V14.9856H31.2299ZM30.7271 14.9856H30.5487L30.4189 14.6774C30.2405 14.9532 30.0296 15.018 29.8025 15.018C28.959 15.018 28.8779 14.0935 28.8779 13.8339C28.8779 13.3311 29.1212 12.6498 29.8512 12.6498C30.062 12.6498 30.3053 12.6985 30.5 12.9418C30.6297 13.104 30.6622 13.25 30.6946 13.3473L30.3378 13.4122C30.3216 13.3149 30.2405 12.9905 29.8512 12.9905C29.6565 12.9905 29.5268 13.0878 29.4619 13.1851C29.3808 13.2824 29.2997 13.4446 29.2997 13.8015C29.2997 14.207 29.397 14.6774 29.8512 14.6774C30.1107 14.6774 30.3378 14.4828 30.3378 14.1421H29.8674V13.8015H30.7271V14.9856ZM26.9477 13.4933C26.7044 13.4933 26.6233 13.6555 26.6233 13.769C26.6233 13.915 26.7206 14.0448 26.9315 14.0448C27.0126 14.0448 27.0937 14.0286 27.1423 13.9799C27.2396 13.915 27.2396 13.8339 27.2396 13.7528C27.2559 13.6717 27.191 13.4933 26.9477 13.4933ZM26.6881 15.2938C26.7855 15.3262 26.899 15.3262 27.0126 15.3262C27.1748 15.3262 27.4505 15.2938 27.4505 15.0991C27.4505 14.9856 27.3207 14.9207 27.2072 14.9207H26.9477C26.8179 14.9207 26.6395 14.9207 26.5422 14.8721C26.4773 14.9207 26.4611 14.9694 26.4611 15.018C26.4448 15.1478 26.5422 15.2613 26.6881 15.2938ZM27.8074 13.2662H27.6938C27.5641 13.2662 27.4992 13.2987 27.4505 13.396C27.5478 13.4771 27.6452 13.5744 27.6452 13.7528C27.6452 14.061 27.3694 14.2719 26.9639 14.2719C26.8504 14.2719 26.7692 14.2557 26.6557 14.2232C26.607 14.2557 26.5422 14.2881 26.5422 14.3854C26.5422 14.4503 26.5908 14.5476 26.8179 14.5476H27.2559C27.6776 14.5476 27.8398 14.7909 27.8398 15.018C27.8398 15.2289 27.6776 15.5695 26.9639 15.5695C26.5259 15.5695 26.1529 15.4722 26.1529 15.1154C26.1529 14.9045 26.2826 14.8396 26.3962 14.7747C26.2989 14.6936 26.234 14.6125 26.234 14.499C26.234 14.2881 26.4124 14.1908 26.5097 14.1421C26.4124 14.0772 26.2664 13.9799 26.2664 13.7528C26.2664 13.5744 26.3637 13.2338 26.9639 13.2338C27.1099 13.2338 27.191 13.25 27.2883 13.2662C27.3045 13.1527 27.3694 13.0716 27.4505 13.0229C27.5316 12.9742 27.6289 12.958 27.7263 12.958H27.8398L27.8074 13.2662ZM24.401 13.2987H24.7417V13.6879C24.8066 13.542 24.9363 13.2662 25.2445 13.2662C25.796 13.2662 25.7798 13.769 25.7798 13.9961V15.0018H25.4229V14.0124C25.4229 13.6231 25.2283 13.6068 25.1634 13.6068C25.0823 13.6068 24.7903 13.6231 24.7903 14.207V15.0018H24.4173L24.401 13.2987ZM23.1521 14.9856C23.071 15.0018 22.9574 15.018 22.8925 15.018C22.7628 15.018 22.6006 14.9694 22.5357 14.8883C22.4383 14.7747 22.4221 14.6612 22.4221 14.4665V13.5906H22.2113V13.2987H22.4383L22.4708 12.8607L22.779 12.8283V13.2987H23.1196V13.5906H22.779V14.4179C22.779 14.645 22.8601 14.6936 23.0547 14.6936C23.0872 14.6936 23.1034 14.6936 23.1521 14.6936V14.9856ZM21.2705 14.9856V13.5906H21.0272V13.2987H21.2705C21.2705 13.104 21.2705 12.8769 21.4813 12.7472C21.5787 12.6823 21.7084 12.6498 22.0166 12.666V12.958C21.968 12.958 21.9517 12.958 21.9193 12.958C21.6435 12.958 21.6435 13.0553 21.6435 13.2987H22.0166V13.5906H21.6435V14.9856H21.2705ZM20.2648 14.9856V13.2987H20.6379V15.0018H20.2648V14.9856ZM20.2648 13.0878V12.6823H20.6379V13.0878C20.6541 13.0878 20.2648 13.0878 20.2648 13.0878ZM18.4967 14.9856V12.6985H18.9347V14.6125H19.9079V14.9856H18.4967ZM48.2778 15.3749V14.8396L48.148 15.3749H48.0993L47.9696 14.8396V15.3749H47.8885V14.6936H48.0345L48.1318 15.0991L48.2291 14.6936H48.3751V15.3749H48.2778ZM47.6127 15.3749V14.8234H47.483V14.7098H47.856V14.8234H47.7263V15.3749H47.6127Z" fill="#EE7D00"/>
</svg>
