<svg width="61" height="30" viewBox="0 0 61 30" fill="none" xmlns="http://www.w3.org/2000/svg">
<path d="M23.1277 18.4536V17.6038L22.8829 18.042H22.6035L22.3588 17.6038V18.4536H21.9226V16.6806H22.3513L22.7503 17.462L23.1473 16.6806H23.5759V18.4536H23.1277Z" fill="#343936"/>
<path d="M26.1841 18.4536L26.1032 18.1892H25.557L25.4711 18.4536H25.0157L25.66 16.6806H25.9936L26.6378 18.4536H26.1841ZM25.8389 17.354L25.6796 17.8269H25.9881L25.8389 17.354Z" fill="#343936"/>
<path d="M28.9884 18.4536L28.6749 17.7948H28.5281V18.4536H28.0919V16.6806H28.795C28.872 16.677 28.949 16.6891 29.0212 16.7162C29.0935 16.7433 29.1594 16.7848 29.2151 16.8382C29.2708 16.8916 29.315 16.9558 29.3451 17.0268C29.3751 17.0979 29.3904 17.1743 29.39 17.2515C29.391 17.3481 29.3643 17.4431 29.3131 17.5251C29.2619 17.6071 29.1883 17.6727 29.101 17.7143L29.483 18.449L28.9884 18.4536ZM28.7754 17.0722H28.5306V17.4299H28.7754C28.8228 17.4299 28.8683 17.4111 28.9018 17.3775C28.9354 17.344 28.9542 17.2985 28.9542 17.251C28.9542 17.2036 28.9354 17.1581 28.9018 17.1246C28.8683 17.091 28.8228 17.0722 28.7754 17.0722Z" fill="#343936"/>
<path d="M30.9895 18.4536V16.6806H31.4232V18.4536H30.9895Z" fill="#343936"/>
<path d="M34.0585 18.4536L33.4901 17.5621V18.4536H33.064V16.6806H33.4434L34.0118 17.5721V16.6806H34.4454V18.4536H34.0585Z" fill="#343936"/>
<path d="M36.0713 18.4536V16.6806H37.2739V17.0701H36.505V17.3665H37.1638V17.756H36.505V18.0671H37.2739V18.4565L36.0713 18.4536Z" fill="#343936"/>
<path d="M41.1876 18.4686C41.0644 18.4785 40.9404 18.4618 40.8242 18.4195C40.708 18.3773 40.6023 18.3106 40.5142 18.2239L40.7935 17.947C40.9065 18.0348 41.0477 18.0784 41.1905 18.0696C41.3619 18.0696 41.4353 18.0133 41.4353 17.9103C41.4377 17.8728 41.4254 17.8359 41.4011 17.8073C41.3684 17.7784 41.327 17.7612 41.2835 17.7585L41.0704 17.7293C40.9376 17.7191 40.8122 17.6638 40.7151 17.5725C40.6723 17.5243 40.6395 17.4681 40.6184 17.4071C40.5974 17.3462 40.5886 17.2816 40.5926 17.2173C40.594 17.1365 40.6124 17.057 40.6465 16.9839C40.6807 16.9107 40.7299 16.8456 40.7909 16.7927C40.8519 16.7398 40.9233 16.7003 41.0006 16.6768C41.0779 16.6534 41.1592 16.6464 41.2393 16.6564C41.3482 16.6485 41.4576 16.6633 41.5605 16.7C41.6634 16.7367 41.7575 16.7944 41.8368 16.8695L41.5625 17.1414C41.5168 17.1024 41.4637 17.0732 41.4063 17.0554C41.3489 17.0377 41.2886 17.0319 41.2289 17.0384C41.0771 17.0384 41.0158 17.1243 41.0158 17.2027C41.016 17.2331 41.0283 17.2622 41.05 17.2836C41.0826 17.3163 41.1264 17.3355 41.1726 17.3374L41.3857 17.3665C41.5147 17.3754 41.6371 17.427 41.7334 17.5133C41.7811 17.5651 41.8175 17.6263 41.8402 17.6929C41.863 17.7595 41.8716 17.8301 41.8656 17.9003C41.8819 18.2726 41.56 18.4686 41.1876 18.4686Z" fill="#343936"/>
<path d="M43.4309 18.4536V16.6806H44.636V17.0701H43.8671V17.3665H44.5234V17.756H43.8671V18.0671H44.636V18.4565L43.4309 18.4536Z" fill="#343936"/>
<path d="M47.1121 18.4536L46.7985 17.7948H46.6517V18.4536H46.2156V16.6806H46.9186C46.9957 16.677 47.0727 16.6891 47.1449 16.7162C47.2171 16.7433 47.2831 16.7848 47.3388 16.8382C47.3944 16.8916 47.4386 16.9558 47.4687 17.0268C47.4988 17.0979 47.5141 17.1743 47.5136 17.2515C47.5146 17.3481 47.4879 17.4431 47.4367 17.5251C47.3855 17.6071 47.3119 17.6727 47.2247 17.7143L47.6066 18.449L47.1121 18.4536ZM46.899 17.0722H46.6542V17.4299H46.899C46.9465 17.4299 46.992 17.4111 47.0255 17.3775C47.059 17.344 47.0779 17.2985 47.0779 17.251C47.0779 17.2036 47.059 17.1581 47.0255 17.1246C46.992 17.091 46.9465 17.0722 46.899 17.0722Z" fill="#343936"/>
<path d="M49.8404 18.4536H49.5172L48.9335 16.6806H49.3842L49.6832 17.6601L49.9751 16.6806H50.4283L49.8404 18.4536Z" fill="#343936"/>
<path d="M51.8806 18.4536V16.6806H52.3164V18.4536H51.8806Z" fill="#343936"/>
<path d="M54.5622 18.4682C54.4713 18.4702 54.381 18.4537 54.2967 18.4196C54.2125 18.3854 54.1361 18.3344 54.0723 18.2697C53.996 18.171 53.9408 18.0576 53.9101 17.9367C53.8793 17.8158 53.8736 17.6899 53.8934 17.5667C53.8753 17.4439 53.8818 17.3187 53.9125 17.1985C53.9432 17.0782 53.9975 16.9653 54.0723 16.8662C54.1357 16.8007 54.2119 16.7491 54.2962 16.7145C54.3806 16.6799 54.4711 16.6631 54.5622 16.6652C54.7269 16.6569 54.8884 16.7123 55.0133 16.8199C55.1383 16.9275 55.217 17.079 55.2331 17.2431H54.7899C54.7826 17.1893 54.7554 17.1402 54.7138 17.1053C54.6721 17.0704 54.619 17.0524 54.5647 17.0546C54.5324 17.0529 54.5002 17.0586 54.4705 17.0713C54.4407 17.0841 54.4144 17.1035 54.3933 17.128C54.3541 17.1818 54.325 17.2431 54.325 17.5663C54.325 17.8894 54.3541 17.9532 54.3933 18.0045C54.4144 18.0291 54.4407 18.0485 54.4705 18.0612C54.5002 18.0739 54.5324 18.0797 54.5647 18.0779C54.619 18.0802 54.6721 18.0621 54.7138 18.0272C54.7554 17.9924 54.7826 17.9433 54.7899 17.8894H55.2331C55.2176 18.0538 55.139 18.2057 55.014 18.3134C54.8889 18.4211 54.727 18.4763 54.5622 18.4674V18.4682Z" fill="#343936"/>
<path d="M56.7373 18.4536V16.6806H57.9399V17.0701H57.171V17.3665H57.8298V17.756H57.171V18.0671H57.9399V18.4565L56.7373 18.4536Z" fill="#343936"/>
<path d="M60.026 18.4682C59.9032 18.478 59.7796 18.4613 59.6639 18.419C59.5481 18.3768 59.4428 18.3101 59.3551 18.2235L59.6345 17.9466C59.7463 18.0349 59.8868 18.0785 60.0289 18.0692C60.2003 18.0692 60.2737 18.0129 60.2737 17.9099C60.2762 17.8724 60.2639 17.8355 60.2395 17.8069C60.2066 17.7784 60.1653 17.7613 60.1219 17.7581L59.9089 17.7289C59.7754 17.718 59.6495 17.6628 59.5511 17.5721C59.5087 17.5237 59.4763 17.4674 59.4557 17.4064C59.4351 17.3455 59.4267 17.2811 59.431 17.2169C59.432 17.136 59.4502 17.0563 59.4842 16.983C59.5182 16.9096 59.5674 16.8443 59.6285 16.7913C59.6896 16.7384 59.7612 16.6989 59.8386 16.6756C59.9161 16.6523 59.9975 16.6456 60.0777 16.656C60.1863 16.6481 60.2953 16.663 60.3977 16.6997C60.5002 16.7364 60.5939 16.7941 60.6728 16.8691L60.4009 17.141C60.3552 17.1021 60.302 17.073 60.2447 17.0553C60.1873 17.0375 60.127 17.0317 60.0673 17.038C59.9155 17.038 59.8517 17.1239 59.8517 17.2023C59.852 17.2327 59.8643 17.2618 59.8859 17.2832C59.9193 17.3147 59.9626 17.3338 60.0085 17.337L60.2241 17.3661C60.353 17.3755 60.4752 17.4271 60.5718 17.5129C60.6191 17.565 60.6551 17.6262 60.6779 17.6928C60.7006 17.7593 60.7095 17.8298 60.704 17.8999C60.7103 18.2727 60.4009 18.4682 60.026 18.4682Z" fill="#343936"/>
<path d="M24.166 7.89563V9.49725H27.5482V9.63444C27.5482 11.6776 27.6829 11.4858 25.6868 11.4958H24.166V15.0177H21.9252V5.89954H28.124V6.1122C28.124 8.05199 28.3125 7.89521 26.8797 7.89521L24.166 7.89563Z" fill="#343936"/>
<path d="M30.3136 15.0177V5.89954H36.5124V6.21561C36.5124 8.09911 36.6742 7.89563 34.8299 7.89563H32.5549V9.42887H35.937V11.4275H32.5549V13.0266H34.9625C36.7555 13.0266 36.5129 12.8552 36.5129 14.5794V15.0252L30.3136 15.0177Z" fill="#343936"/>
<path d="M43.4601 14.1383L41.0992 10.4326V15.0194H38.8558V5.89958H39.7765C40.0952 5.89959 40.4086 5.97981 40.6881 6.13284C40.9676 6.28587 41.204 6.50679 41.3757 6.77524L43.7366 10.483V5.89624H45.9775V15.0177H45.0638C44.744 15.0188 44.4291 14.9386 44.1486 14.7848C43.8681 14.631 43.6312 14.4086 43.4601 14.1383Z" fill="#343936"/>
<path d="M48.579 15.0177V7.06295C48.579 5.81201 48.579 5.89958 49.7424 5.89958H50.8198V15.0177H48.579Z" fill="#343936"/>
<path d="M57.5137 13.999L56.5584 12.2135L55.596 13.999C55.089 14.9639 55.1578 15.0177 53.8964 15.0177H52.4904L55.3508 10.3425L52.6763 5.89954H54.0524C55.5585 5.89954 55.3283 6.1614 55.7666 6.94199L56.5588 8.47523L57.3511 6.94199C57.8652 6.02838 57.6622 5.89954 59.0653 5.89954H60.4413L57.7727 10.3421L60.6161 15.0172H59.2079C57.9224 15.0177 58.0229 14.9393 57.5137 13.999Z" fill="#343936"/>
<path d="M5.12625 16.4996L5.14835 16.4851C5.16425 16.4712 5.18142 16.4589 5.19964 16.4484L15.5925 9.08113C15.8868 8.883 16.1281 8.61579 16.2953 8.30286C16.4625 7.98994 16.5504 7.64082 16.5515 7.28603V4.79999L1.74203 15.1695C1.44405 15.3821 1.19745 15.6588 1.02031 15.9791C0.843171 16.2995 0.739993 16.6554 0.71834 17.0209V18.3936C0.682303 18.6761 0.722851 18.9632 0.835745 19.2247C0.948638 19.4862 1.12973 19.7126 1.36007 19.8801L5.38895 22.7944L8.20774 24.8322C8.2783 24.8967 8.37045 24.9325 8.46606 24.9325C8.56167 24.9325 8.65382 24.8967 8.72438 24.8322L11.3889 22.8999L9.02544 21.2053C8.87261 21.0903 8.75002 20.9399 8.6682 20.767C8.58638 20.5941 8.54779 20.404 8.55574 20.2129C8.5637 20.0218 8.61797 19.8355 8.71388 19.67C8.8098 19.5046 8.94447 19.3649 9.10633 19.263C9.10633 19.263 15.6383 14.6578 15.7851 14.5473C16.027 14.3387 16.2187 14.0781 16.3459 13.7851C16.4732 13.492 16.5326 13.174 16.5198 12.8548L16.5444 10.4255L6.99516 17.1093L5.16044 18.3927H5.14585C4.99955 18.2842 4.88036 18.1432 4.79763 17.9809C4.7149 17.8186 4.67086 17.6393 4.66896 17.4571C4.66706 17.2749 4.70735 17.0948 4.78669 16.9308C4.86602 16.7668 4.98224 16.6233 5.12625 16.5117V16.4996ZM10.5804 7.06295C10.3035 6.4554 8.84655 5.96837 8.43249 5.76738C8.01843 5.5664 7.61688 4.88338 6.80626 4.84669C6.70771 4.82846 6.60715 4.82355 6.50729 4.8321H0.720425C0.720425 4.8321 0.605338 5.73111 1.73452 5.73111H2.9813L1.78623 6.37993C1.78623 6.37993 0.720841 6.91158 0.720841 7.93777V12.6984V14.3639C0.765417 14.1607 0.851362 13.9689 0.97332 13.8003C1.09528 13.6318 1.25063 13.4902 1.42971 13.3844C1.65029 13.2176 7.79743 8.89766 7.79743 8.89766C9.53624 7.65089 10.4694 8.5278 10.4694 8.5278C10.598 8.30815 10.6747 8.06208 10.6938 7.80831C10.7128 7.55453 10.6738 7.29976 10.5795 7.06336L10.5804 7.06295ZM6.69868 6.43122C6.36279 6.29007 6.08061 6.04557 5.89308 5.73319H6.78708C6.95085 5.743 7.10973 5.79279 7.2498 5.8782C7.38988 5.96361 7.50689 6.08205 7.59061 6.22314C7.3309 6.40378 7.01194 6.47823 6.6991 6.43122H6.69868ZM16.5244 15.7966C16.5244 15.7966 10.8326 19.7913 10.8251 19.7938C10.7514 19.8428 10.6906 19.909 10.648 19.9866C10.6054 20.0642 10.5822 20.151 10.5804 20.2396C10.5805 20.3184 10.5981 20.3962 10.632 20.4674C10.6659 20.5386 10.7152 20.6013 10.7763 20.6511C10.7916 20.6647 10.8079 20.677 10.8251 20.6878L12.6544 22.0105L15.7968 19.8063C16.426 19.351 16.4677 18.7484 16.5144 18.055C16.5344 17.9103 16.5248 15.7966 16.5248 15.7966H16.5244Z" fill="url(#paint0_linear_8020_26073)"/>
<defs>
<linearGradient id="paint0_linear_8020_26073" x1="1.68802" y1="20.1812" x2="18.3825" y2="7.86058" gradientUnits="userSpaceOnUse">
<stop stop-color="#F99D20"/>
<stop offset="0.19" stop-color="#EF7A24"/>
<stop offset="0.42" stop-color="#E45728"/>
<stop offset="0.64" stop-color="#DD3E2C"/>
<stop offset="0.84" stop-color="#D92E2D"/>
<stop offset="1" stop-color="#D7292E"/>
</linearGradient>
</defs>
</svg>
