<svg width="32" height="31" viewBox="0 0 32 31" fill="none" xmlns="http://www.w3.org/2000/svg">
<path fill-rule="evenodd" clip-rule="evenodd" d="M18.0508 3.6494C16.9183 2.51688 15.0821 2.51688 13.9496 3.6494C12.8171 4.78193 12.8171 6.6181 13.9496 7.75062C15.0822 8.88314 16.9183 8.88314 18.0508 7.75062C19.1834 6.61809 19.1834 4.78192 18.0508 3.6494ZM19.8893 1.81092C17.7414 -0.336958 14.259 -0.336959 12.1112 1.81092C9.96327 3.95881 9.96327 7.44121 12.1112 9.58909C14.259 11.737 17.7414 11.737 19.8893 9.58909C22.0372 7.44121 22.0372 3.95881 19.8893 1.81092Z" fill="#879AAF"/>
<path fill-rule="evenodd" clip-rule="evenodd" d="M16 8.60001C16.718 8.60001 17.3 9.18204 17.3 9.90001V29.5C17.3 30.218 16.718 30.8 16 30.8C15.282 30.8 14.7 30.218 14.7 29.5V9.90001C14.7 9.18204 15.282 8.60001 16 8.60001Z" fill="#879AAF"/>
<path fill-rule="evenodd" clip-rule="evenodd" d="M0.700012 15.5C0.700012 14.782 1.28204 14.2 2.00001 14.2H6.20001C6.91798 14.2 7.50001 14.782 7.50001 15.5C7.50001 16.218 6.91798 16.8 6.20001 16.8H3.36575C4.01689 23.203 9.42537 28.2 16 28.2C22.5747 28.2 27.9831 23.203 28.6343 16.8H25.8C25.082 16.8 24.5 16.218 24.5 15.5C24.5 14.782 25.082 14.2 25.8 14.2H30C30.718 14.2 31.3 14.782 31.3 15.5C31.3 23.9495 24.4495 30.8 16 30.8C7.55054 30.8 0.700012 23.9495 0.700012 15.5Z" fill="#879AAF"/>
</svg>
