<svg width="61" height="30" viewBox="0 0 61 30" fill="none" xmlns="http://www.w3.org/2000/svg">
<path fill-rule="evenodd" clip-rule="evenodd" d="M11.729 4.21152C11.7118 4.20577 11.6945 4.20001 11.6831 4.20001H10.7413C10.7183 4.20001 10.7011 4.20577 10.6838 4.21152C10.6666 4.21728 10.6494 4.22303 10.6264 4.22303C9.52379 4.29208 8.44416 4.52226 7.41047 4.91357C6.1241 5.41996 4.95258 6.15653 3.94186 7.12329C2.47173 8.50436 1.48398 10.1847 0.978618 12.1182C0.840793 12.6936 0.725939 13.2691 0.679997 13.8445C0.668511 13.9251 0.662769 13.9999 0.657026 14.0747C0.651283 14.1495 0.64554 14.2243 0.634055 14.3049C0.634055 14.3164 0.628312 14.3221 0.622569 14.3279C0.616827 14.3336 0.611084 14.3394 0.611084 14.3509V15.2946C0.634055 15.3637 0.657026 15.4327 0.657026 15.5018C0.748909 16.8599 1.0705 18.1258 1.64477 19.3458C2.19608 20.5197 2.93115 21.5555 3.87295 22.4532C5.29715 23.8343 6.97402 24.732 8.92655 25.1233C9.45488 25.2384 9.98321 25.3304 10.5345 25.3535C10.546 25.3535 10.5575 25.3592 10.569 25.365C10.5804 25.3707 10.5919 25.3765 10.6034 25.3765H11.8898C11.9128 25.3535 11.9357 25.3535 11.9587 25.3535L12.5789 25.2844C13.2451 25.1923 13.8883 25.0542 14.5315 24.8471C16.2313 24.2946 17.7014 23.3739 18.9419 22.0619C19.8377 21.1182 20.5269 20.0363 21.0322 18.8394C21.4227 17.9187 21.6524 16.9519 21.7673 15.9391C21.8362 15.4788 21.8362 14.9954 21.8362 14.5351C21.8362 14.4801 21.831 14.4252 21.8255 14.3678C21.8195 14.3049 21.8132 14.2389 21.8132 14.1668H19.3553C19.3641 14.1492 19.3695 14.135 19.3742 14.1228C19.3817 14.1031 19.3871 14.0889 19.4013 14.0747C19.631 13.6258 19.8664 13.1827 20.1019 12.7397C20.3373 12.2966 20.5728 11.8535 20.8025 11.4046C20.8255 11.3586 20.8484 11.3356 20.9174 11.3356H21.216C21.2059 11.3154 21.2003 11.2952 21.1951 11.2769C21.1886 11.2536 21.1829 11.2334 21.17 11.2205C21.0897 11.046 21.0171 10.8637 20.9433 10.6781C20.8905 10.5455 20.837 10.411 20.7795 10.2767C20.7566 10.1847 20.7106 10.1616 20.6187 10.1616H16.8515C16.863 10.1501 16.8687 10.1329 16.8745 10.1156C16.8802 10.0984 16.886 10.0811 16.8975 10.0696C17.1501 9.60922 17.4028 9.12584 17.6555 8.64247C17.7703 8.4238 17.8795 8.21088 17.9886 7.99797L17.9888 7.99757C18.0978 7.78478 18.2069 7.572 18.3216 7.35347C18.3446 7.30743 18.3676 7.28441 18.4365 7.28441H18.6432L18.5514 7.19234C17.7244 6.3637 16.7596 5.71919 15.703 5.2128C14.4625 4.61433 13.1532 4.29208 11.7749 4.22303C11.7635 4.22303 11.7462 4.21728 11.729 4.21152ZM19.4896 12.2925C19.1549 12.9374 18.8239 13.5751 18.4824 14.2128H17.0583C17.0583 14.2013 17.064 14.1898 17.0697 14.1783C17.0755 14.1668 17.0812 14.1553 17.0812 14.1437C17.3224 13.6949 17.5579 13.2403 17.7933 12.7857C18.0288 12.3311 18.2642 11.8765 18.5054 11.4276C18.5284 11.3816 18.5514 11.3586 18.5973 11.3586H19.9756C19.8117 11.6721 19.6502 11.9831 19.4896 12.2925ZM14.8071 14.2128C14.8071 14.1207 16.0935 11.6578 16.2772 11.3586H17.6555C17.4916 11.6721 17.3302 11.9831 17.1696 12.2925C16.8349 12.9374 16.5039 13.5751 16.1624 14.2128H14.8071ZM12.7397 14.2128C12.7397 14.1207 14.072 11.5657 14.2099 11.3586H15.2665C15.2665 11.4507 13.8883 14.0747 13.7964 14.2128H12.7397ZM17.3798 7.30743C16.8975 8.27413 16.3921 9.21781 15.8868 10.1615L14.8071 10.1616C14.8186 10.1501 14.8243 10.1329 14.8301 10.1156C14.8358 10.0984 14.8416 10.0811 14.853 10.0696C14.9999 9.79003 15.149 9.50813 15.2991 9.22464L15.2992 9.22437L15.2994 9.22396C15.6187 8.62064 15.9418 8.01007 16.2543 7.3995C16.3002 7.33045 16.3232 7.30743 16.3921 7.30743H17.3798ZM14.9909 7.33045C14.6494 7.96813 14.3184 8.60581 13.9837 9.25059L13.9828 9.25249C13.8225 9.56132 13.6613 9.87179 13.4978 10.1847H12.51C12.51 10.1616 12.51 10.1386 12.533 10.1156C12.7627 9.66676 12.9981 9.21792 13.2336 8.76907C13.469 8.32022 13.7045 7.87137 13.9342 7.42252C13.9572 7.37648 13.9802 7.33045 14.0491 7.33045H14.9909ZM11.1662 12.7742C11.4132 12.3023 11.6601 11.8304 11.9128 11.3586H12.9235C12.4181 12.3023 11.9128 13.246 11.4304 14.1898H10.4197C10.6723 13.7179 10.9193 13.246 11.1662 12.7742ZM9.5927 12.7972C9.34577 13.2691 9.09883 13.7409 8.85764 14.2128H8.0996C8.0996 14.2013 8.10534 14.1898 8.11108 14.1783C8.11682 14.1668 8.12257 14.1553 8.12257 14.1437C8.35228 13.6949 8.58773 13.246 8.82318 12.7972C9.05863 12.3484 9.29409 11.8995 9.52379 11.4507C9.54676 11.4046 9.56974 11.3816 9.63865 11.3816H10.3278C10.0866 11.8535 9.83964 12.3253 9.5927 12.7972ZM12.4181 7.30743C11.9128 8.27418 11.4304 9.21792 10.948 10.1616H10.167C10.1785 10.1271 10.1957 10.0984 10.2129 10.0696C10.2301 10.0408 10.2474 10.012 10.2589 9.97751C10.4769 9.55196 10.7007 9.12068 10.9246 8.68939L10.9247 8.68905L10.925 8.6885L10.9252 8.68818C11.1491 8.2567 11.373 7.82522 11.5912 7.3995C11.6141 7.33045 11.6601 7.30743 11.729 7.30743H12.4181ZM9.46018 8.3025C9.13128 8.92652 8.80577 9.54408 8.4901 10.1616H8.05366C8.06243 10.1441 8.06785 10.1298 8.07248 10.1177C8.07998 10.098 8.0854 10.0838 8.0996 10.0696C8.26039 9.77035 8.41545 9.46536 8.5705 9.16037C8.72555 8.85538 8.88061 8.5504 9.0414 8.25116C9.09581 8.14213 9.1538 8.03309 9.21254 7.92263C9.30259 7.7533 9.39444 7.58059 9.47785 7.3995C9.52379 7.33045 9.54676 7.30743 9.63865 7.30743H9.98321C9.80864 7.64139 9.63406 7.9726 9.46044 8.30202L9.46018 8.3025ZM6.39975 14.1898H5.9633C6.46866 13.246 6.95105 12.3023 7.41047 11.3586H7.84692C7.84692 11.4276 6.53758 13.9596 6.39975 14.1898ZM6.00925 10.1616H5.80251C5.87142 10.0466 5.91736 9.93147 5.9633 9.81638C6.21307 9.31583 6.47121 8.82369 6.72761 8.33487C6.89568 8.01445 7.06299 7.69547 7.2267 7.37648C7.27265 7.33045 7.29562 7.30743 7.36453 7.30743H7.52533C7.51525 7.32761 7.5096 7.3478 7.50449 7.36604C7.49794 7.38941 7.49228 7.40959 7.47938 7.42252C7.35304 7.66421 7.23245 7.90014 7.11185 8.13607C6.99125 8.37201 6.87066 8.60794 6.74432 8.84963C6.64095 9.04528 6.53758 9.24669 6.43421 9.44809C6.33084 9.6495 6.22747 9.85091 6.1241 10.0466C6.11262 10.0581 6.10687 10.0696 6.10113 10.0811C6.09539 10.0926 6.08964 10.1041 6.07816 10.1156C6.07816 10.1616 6.03222 10.1616 6.00925 10.1616Z" fill="#172A41"/>
<path d="M57.3837 11.8305C57.4009 11.7441 57.4181 11.6578 57.4411 11.5657V10.8982C57.4411 10.8867 57.4354 10.881 57.4296 10.8752C57.4239 10.8695 57.4181 10.8637 57.4181 10.8522C57.3952 10.576 57.2573 10.3458 57.0736 10.1386C56.8439 9.90846 56.5452 9.77035 56.2236 9.7013C55.8102 9.60923 55.3737 9.60923 54.9602 9.67828C54.2481 9.77035 53.6739 10.1156 53.2604 10.7371C52.9847 11.1744 52.824 11.6348 52.7091 12.1412L52.1578 14.6962C52.0659 15.1105 51.974 15.5478 52.02 15.9852C52.0429 16.3765 52.1578 16.7218 52.4564 16.998C52.6632 17.2051 52.9388 17.3202 53.2145 17.3663C53.7198 17.4583 54.2252 17.4353 54.7076 17.3432C55.121 17.2512 55.4656 17.09 55.7872 16.8368C56.1547 16.5376 56.3844 16.1463 56.5452 15.709C56.6704 15.3687 56.7398 15.0144 56.8078 14.6679C56.8272 14.5692 56.8464 14.471 56.8668 14.3739V14.3279H55.167C55.167 14.3549 55.1591 14.3739 55.1526 14.3897C55.1479 14.4009 55.144 14.4104 55.144 14.42C55.1134 14.5351 55.0879 14.6501 55.0623 14.7652C55.0113 14.9954 54.9603 15.2256 54.8684 15.4558C54.8224 15.5709 54.7765 15.686 54.7076 15.801C54.6157 15.9391 54.4779 16.0542 54.2941 16.0773C54.0184 16.1233 53.7887 15.9622 53.7428 15.686C53.7198 15.5939 53.7198 15.5248 53.7198 15.4328C53.7428 15.2256 53.7658 15.0184 53.8117 14.8113L54.2941 12.5325C54.363 12.2102 54.4319 11.911 54.5238 11.6118C54.5697 11.4507 54.6616 11.2895 54.7765 11.1514C54.9373 10.9673 55.144 10.8752 55.3967 10.9212C55.6034 10.9443 55.7183 11.0594 55.7413 11.2665C55.7642 11.3586 55.7642 11.4507 55.7413 11.5197C55.7183 11.6233 55.6953 11.7326 55.6724 11.8418C55.6494 11.9512 55.6264 12.0606 55.6034 12.1642C55.5919 12.1987 55.5862 12.2333 55.5805 12.2678C55.5747 12.3023 55.569 12.3368 55.5575 12.3714H57.2573L57.3262 12.0952C57.3492 12.0031 57.3665 11.9168 57.3837 11.8305Z" fill="#172A41"/>
<path fill-rule="evenodd" clip-rule="evenodd" d="M40.9758 14.9009L40.9756 14.9017C40.8151 15.6645 40.6554 16.4233 40.4886 17.1821H38.6509C38.9955 15.5363 39.3458 13.8963 39.6961 12.2563C40.0464 10.6162 40.3967 8.97622 40.7413 7.33044H44.4625C44.6693 7.33044 44.899 7.35346 45.1057 7.3995C45.68 7.5376 46.0246 7.90589 46.1854 8.45832C46.3002 8.82661 46.3002 9.19489 46.2543 9.56318C46.1854 10.1847 46.0246 10.8061 45.7259 11.3586C45.2435 12.2793 44.4625 12.7857 43.4748 12.9698C43.1762 13.0159 42.8775 13.0389 42.5789 13.0389H41.5223C41.4763 13.0849 41.4304 13.0849 41.3615 13.0849C41.2299 13.6936 41.1027 14.2978 40.9761 14.8995L40.976 14.8998L40.9759 14.9003L40.9758 14.9009ZM41.6831 11.5888C41.6945 11.5888 41.7003 11.5945 41.706 11.6003C41.7118 11.606 41.7175 11.6118 41.729 11.6118C41.8583 11.6118 41.9902 11.6143 42.1229 11.6168C42.3909 11.622 42.6623 11.6272 42.9235 11.6118C43.4059 11.5888 43.7964 11.3356 44.0491 10.8982C44.2099 10.622 44.3017 10.2998 44.3477 9.9775C44.3936 9.77034 44.4166 9.5862 44.3707 9.37904C44.3247 9.14886 44.2099 8.96471 43.9801 8.89566C43.8423 8.84962 43.7045 8.82661 43.5667 8.80359C43.1532 8.78057 42.7627 8.78057 42.3492 8.78057C42.3262 8.78057 42.3033 8.78057 42.2803 8.80359C42.1892 9.2195 42.1025 9.63095 42.0164 10.0399L42.0163 10.0403L42.0163 10.0407L42.0162 10.041L42.0161 10.0415C41.9069 10.5599 41.7986 11.0743 41.6831 11.5888Z" fill="#172A41"/>
<path fill-rule="evenodd" clip-rule="evenodd" d="M46.438 11.9801H48.069C48.069 11.934 48.069 11.911 48.1379 11.819C48.1543 11.7696 48.1678 11.7172 48.1815 11.664C48.2061 11.5685 48.2315 11.4703 48.2757 11.3816C48.3906 11.1054 48.5973 10.9443 48.873 10.8752C49.1256 10.8292 49.3783 10.8292 49.631 10.8752C49.8377 10.8982 49.9296 11.0363 49.9296 11.2435C49.9066 11.5427 49.8148 11.819 49.5621 12.0261C49.4472 12.1412 49.3094 12.2333 49.1486 12.3023C48.827 12.4404 48.5054 12.5785 48.1838 12.6936C47.7704 12.8548 47.3569 13.0389 46.9893 13.2691C46.484 13.5913 46.1164 14.0057 45.8867 14.5581C45.7719 14.8573 45.703 15.1796 45.657 15.5018C45.6111 15.8011 45.6111 16.0773 45.657 16.3535C45.7489 16.7678 45.9786 17.067 46.3691 17.2051C46.5299 17.2512 46.6907 17.2972 46.8515 17.3202C47.288 17.3893 47.7014 17.3433 48.0919 17.1131C48.3676 16.975 48.6203 16.7678 48.827 16.5376C48.8418 16.5079 48.8663 16.4878 48.8941 16.4648C48.9093 16.4523 48.9256 16.4388 48.9419 16.4225C48.9189 16.5606 48.8959 16.6757 48.873 16.7908C48.85 16.9289 48.85 17.044 48.8959 17.1591H50.5039V17.0901C50.4809 16.8138 50.5039 16.5376 50.5498 16.2614C50.5799 16.111 50.6143 15.9561 50.6492 15.7988L50.6495 15.7973C50.6947 15.5942 50.7408 15.3868 50.7795 15.1796C50.9059 14.6041 51.0265 14.0286 51.1471 13.4531L51.1473 13.452C51.2678 12.877 51.3884 12.3019 51.5146 11.7269C51.5835 11.4507 51.6524 11.1745 51.6295 10.8752C51.6295 10.3918 51.3998 10.0236 50.9403 9.8164C50.8996 9.80279 50.8588 9.78717 50.8175 9.77132C50.719 9.73356 50.6171 9.69451 50.5039 9.67829C49.8148 9.54018 49.1256 9.5632 48.4365 9.70131C48.069 9.79338 47.7244 9.93149 47.4258 10.1617C46.8285 10.622 46.5988 11.2665 46.438 11.9801ZM49.4472 13.3151L49.4702 13.3381C49.4243 13.5453 49.3783 13.7294 49.3094 13.8906C49.2175 14.3049 49.1256 14.7192 49.0108 15.1335C48.9648 15.3177 48.873 15.5018 48.7581 15.6629C48.4824 16.0312 48.0919 16.1003 47.7244 16.0082C47.5177 15.9622 47.3798 15.8011 47.3798 15.5709C47.3798 15.1796 47.4488 14.8113 47.6785 14.466C47.7474 14.3739 47.8393 14.2819 47.9541 14.2128C48.1938 14.0574 48.4421 13.9107 48.6937 13.762C48.8521 13.6684 49.0119 13.574 49.1716 13.4762C49.2635 13.4072 49.3553 13.3612 49.4472 13.3151Z" fill="#172A41"/>
<path fill-rule="evenodd" clip-rule="evenodd" d="M34.8837 11.9801H33.2757C33.2757 11.934 33.2757 11.911 33.2987 11.865C33.3676 11.5427 33.4595 11.2205 33.6203 10.9212C33.9419 10.2998 34.4472 9.93147 35.1134 9.74733C35.412 9.65525 35.7106 9.63224 36.0093 9.60922C36.3998 9.5862 36.8132 9.5862 37.2037 9.65525C37.5024 9.70129 37.801 9.79336 38.0307 10.0005C38.2604 10.1847 38.3982 10.4379 38.4442 10.7371C38.4901 11.0593 38.4442 11.3586 38.3753 11.6578C38.2489 12.2678 38.1168 12.8778 37.9847 13.4877L37.9845 13.4888C37.8525 14.0984 37.7205 14.708 37.5942 15.3177C37.5631 15.4839 37.5274 15.6501 37.4911 15.8184C37.4471 16.0231 37.4023 16.2308 37.3645 16.4455C37.337 16.5836 37.3342 16.7217 37.3315 16.8598C37.3296 16.9519 37.3278 17.044 37.3186 17.1361V17.2051H35.7106C35.6417 16.9749 35.6877 16.7218 35.7566 16.4686L35.412 16.8138C35.1134 17.09 34.7458 17.3202 34.3324 17.3893C33.9189 17.4583 33.5284 17.4353 33.1379 17.2742C32.7474 17.1131 32.5177 16.7908 32.4717 16.3765C32.4028 15.4788 32.5636 14.6501 33.1379 13.9366C33.4135 13.6143 33.7581 13.3611 34.1256 13.177C34.5296 12.9746 34.969 12.8078 35.3972 12.6453L35.5052 12.6043L35.5728 12.5785C35.8255 12.4865 36.0782 12.3714 36.2849 12.2333C36.5835 12.0261 36.7443 11.7269 36.7214 11.3586C36.7214 11.1514 36.6295 11.0363 36.4227 10.9903C36.216 10.9443 36.0093 10.9443 35.8025 10.9673C35.7336 10.9673 35.6647 10.9903 35.5958 11.0133C35.3661 11.0824 35.1823 11.2205 35.0674 11.4276C34.9985 11.5657 34.9526 11.7269 34.9066 11.888C34.8837 11.888 34.8837 11.934 34.8837 11.9801ZM36.2619 13.3151L35.9174 13.5223C35.5269 13.7524 35.1363 13.9826 34.7458 14.2358C34.608 14.3279 34.4932 14.466 34.4243 14.6041C34.2635 14.9033 34.1945 15.2486 34.1945 15.5939C34.1945 15.8471 34.3553 16.0082 34.608 16.0772C35.0445 16.1693 35.435 16.0082 35.6647 15.6169C35.7795 15.4097 35.8714 15.2026 35.9174 14.9724C35.9748 14.7192 36.0322 14.4602 36.0897 14.2013C36.1471 13.9423 36.2045 13.6834 36.2619 13.4302V13.3151Z" fill="#172A41"/>
<path d="M24.6157 17.1821H26.4533C27.0506 14.3969 27.6478 11.6118 28.2451 8.80358H30.3814C30.4273 8.56189 30.479 8.32021 30.5307 8.07852C30.5824 7.83683 30.6341 7.59514 30.68 7.35345H24.5468C24.5008 7.59514 24.4491 7.83683 24.3975 8.07852C24.3458 8.32021 24.2941 8.56189 24.2481 8.80358H25.8561C25.9081 8.80358 25.9625 8.80118 26.0185 8.7987C26.1357 8.79351 26.2601 8.78801 26.3844 8.80358C25.8102 11.5887 25.2129 14.3969 24.6157 17.1821Z" fill="#172A41"/>
<path d="M29.853 9.79337H31.5069C31.4151 10.2077 31.3232 10.622 31.2543 11.0594C31.2543 11.0594 31.2772 11.0594 31.2772 11.0824C31.2887 11.0709 31.3002 11.0536 31.3117 11.0363C31.3232 11.0191 31.3347 11.0018 31.3462 10.9903C31.5299 10.6911 31.7367 10.4149 32.0123 10.2077C32.265 10.0005 32.5636 9.81639 32.8852 9.74733C33.023 9.72431 33.1609 9.7013 33.3217 9.7013C33.1838 10.3918 33.046 11.0594 32.8852 11.7269H32.3798C31.9664 11.7499 31.5988 11.865 31.3232 12.1642C31.1164 12.3944 31.0016 12.6476 30.9327 12.9468C30.864 13.2682 30.7952 13.5838 30.7265 13.8994L30.7254 13.9047C30.6566 14.2203 30.5879 14.536 30.5192 14.8573C30.4388 15.2371 30.3584 15.6227 30.278 16.0082C30.1976 16.3938 30.1172 16.7793 30.0368 17.1591C30.0368 17.1686 30.0329 17.1782 30.0283 17.1893C30.0217 17.2051 30.0138 17.2242 30.0138 17.2512H28.314C28.4288 16.6297 28.5667 16.0082 28.7045 15.4097C28.767 15.1279 28.8248 14.8461 28.8821 14.5665C28.9512 14.2294 29.0197 13.8954 29.095 13.5683C29.1575 13.2865 29.2153 13.0047 29.2726 12.7251C29.3417 12.388 29.4102 12.054 29.4855 11.7269C29.6004 11.0363 29.7152 10.4149 29.853 9.79337Z" fill="#172A41"/>
<path fill-rule="evenodd" clip-rule="evenodd" d="M59.1409 9.10283H59.3707V8.64247H59.4855L59.7152 9.10283H59.9909L59.7382 8.61945C59.899 8.59643 60.0138 8.52738 60.0138 8.32022C60.0138 8.06702 59.853 7.97495 59.5544 7.97495H59.1409V9.10283ZM59.6004 8.43531H59.4166V8.18211H59.5774C59.7382 8.18211 59.7841 8.20513 59.7841 8.2972C59.7841 8.38927 59.7382 8.43531 59.6004 8.43531Z" fill="#172A41"/>
<path fill-rule="evenodd" clip-rule="evenodd" d="M60.6111 8.5504C60.6111 7.92891 60.1057 7.53761 59.5544 7.53761C59.0031 7.53761 58.4978 7.90589 58.4978 8.5504C58.4978 9.1949 59.0031 9.56318 59.5544 9.56318C60.1057 9.56318 60.6111 9.17188 60.6111 8.5504ZM58.8194 8.5504C58.8194 8.09004 59.1409 7.76779 59.5544 7.76779C59.9679 7.76779 60.2895 8.09004 60.2895 8.5504C60.2895 9.01075 59.9679 9.333 59.5544 9.333C59.1409 9.333 58.8194 9.01075 58.8194 8.5504Z" fill="#172A41"/>
</svg>
