<svg id="eduvyoh75fu1" xmlns="http://www.w3.org/2000/svg" xmlns:xlink="http://www.w3.org/1999/xlink" viewBox="0 0 1600 1316" shape-rendering="geometricPrecision" text-rendering="geometricPrecision"><style><![CDATA[#eduvyoh75fu8_to {animation: eduvyoh75fu8_to__to 20000ms linear infinite normal forwards}@keyframes eduvyoh75fu8_to__to { 0% {transform: translate(-187.925003px,40.500000px)} 20% {transform: translate(532.074997px,40.500000px)} 20.500000% {transform: translate(730.074997px,80.500000px)} 28% {transform: translate(670.074997px,300.500000px)} 31.500000% {transform: translate(670.074997px,300.500000px)} 45% {transform: translate(670.074997px,700.500000px)} 45.500000% {transform: translate(881.074997px,930.500000px)} 54% {transform: translate(881.074997px,930.500000px)} 60% {transform: translate(881.074997px,1010.500000px)} 63.500000% {transform: translate(696.930935px,1276.298320px)} 69.500000% {transform: translate(706.930935px,1276.298320px)} 80% {transform: translate(437.930935px,1276.298320px)} 81% {transform: translate(362.521699px,1237.695973px)} 84.500000% {transform: translate(354.442138px,1172.161756px)} 85.500000% {transform: translate(281.726088px,1123.684390px)} 100% {transform: translate(-68.273912px,1123.684390px)} }#eduvyoh75fu8_tr {animation: eduvyoh75fu8_tr__tr 20000ms linear infinite normal forwards}@keyframes eduvyoh75fu8_tr__tr { 0% {transform: rotate(-180deg)} 20% {transform: rotate(-180deg)} 20.500000% {transform: rotate(-90deg)} 27.500000% {transform: rotate(-90deg)} 60% {transform: rotate(-90deg)} 63.500000% {transform: rotate(0deg)} 80% {transform: rotate(0deg)} 80.500000% {transform: rotate(15deg)} 81% {transform: rotate(90deg)} 85% {transform: rotate(75deg)} 85.500000% {transform: rotate(0deg)} 100% {transform: rotate(0deg)} }#eduvyoh75fu8 {animation: eduvyoh75fu8_c_o 20000ms linear infinite normal forwards}@keyframes eduvyoh75fu8_c_o { 0% {opacity: 1} 19.500000% {opacity: 1} 20% {opacity: 0} 25.500000% {opacity: 0} 26% {opacity: 0} 27% {opacity: 0} 27.500000% {opacity: 0} 31.500000% {opacity: 0} 32% {opacity: 1} 44.500000% {opacity: 1} 45% {opacity: 0} 54% {opacity: 0} 54.500000% {opacity: 1} 59.500000% {opacity: 1} 60% {opacity: 0} 69% {opacity: 0} 69.500000% {opacity: 1} 79.500000% {opacity: 1} 80% {opacity: 0} 87.500000% {opacity: 0} 88% {opacity: 1} 100% {opacity: 1} }#eduvyoh75fu9_to {animation: eduvyoh75fu9_to__to 20000ms linear infinite normal forwards}@keyframes eduvyoh75fu9_to__to { 0% {transform: translate(-58.761372px,39.074706px)} 20% {transform: translate(661.238628px,39.074706px)} 21% {transform: translate(731.133400px,106.412353px)} 27.500000% {transform: translate(731.133400px,206.412353px)} 28.500000% {transform: translate(707.563576px,227.839467px)} 29% {transform: translate(671.565617px,332.238627px)} 45% {transform: translate(671.565617px,822.238627px)} 46% {transform: translate(760.501639px,890.313113px)} 50% {transform: translate(810.501639px,890.313113px)} 51% {transform: translate(881.925294px,980.086013px)} 60% {transform: translate(881.925294px,1120.086013px)} 61% {transform: translate(836.141115px,1184.925294px)} 63.500000% {transform: translate(796.141115px,1184.925294px)} 65% {transform: translate(735.993272px,1211.857164px)} 67% {transform: translate(657.890849px,1277.311820px)} 80% {transform: translate(317.890849px,1277.311820px)} 81% {transform: translate(242.481613px,1238.709473px)} 84.500000% {transform: translate(234.402052px,1173.175256px)} 85.500000% {transform: translate(161.686002px,1124.697890px)} 100% {transform: translate(-188.313998px,1124.697890px)} }#eduvyoh75fu9_tr {animation: eduvyoh75fu9_tr__tr 20000ms linear infinite normal forwards}@keyframes eduvyoh75fu9_tr__tr { 0% {transform: rotate(90deg)} 20% {transform: rotate(90deg)} 20.500000% {transform: rotate(105deg)} 21% {transform: rotate(180deg)} 27.500000% {transform: rotate(180deg)} 28% {transform: rotate(195deg)} 28.500000% {transform: rotate(210deg)} 29% {transform: rotate(180deg)} 45% {transform: rotate(180deg)} 45.500000% {transform: rotate(165deg)} 46% {transform: rotate(90deg)} 50% {transform: rotate(90deg)} 50.500000% {transform: rotate(105deg)} 51% {transform: rotate(180deg)} 60% {transform: rotate(180deg)} 60.500000% {transform: rotate(195deg)} 61% {transform: rotate(270deg)} 63.500000% {transform: rotate(270deg)} 64% {transform: rotate(255deg)} 65% {transform: rotate(195deg)} 67% {transform: rotate(270deg)} 80% {transform: rotate(270deg)} 80.500000% {transform: rotate(285deg)} 81% {transform: rotate(360deg)} 85% {transform: rotate(300deg)} 85.500000% {transform: rotate(270deg)} 100% {transform: rotate(270deg)} }#eduvyoh75fu9 {animation: eduvyoh75fu9_c_o 20000ms linear infinite normal forwards}@keyframes eduvyoh75fu9_c_o { 0% {opacity: 1} 19.500000% {opacity: 1} 20% {opacity: 1} 100% {opacity: 1} }]]></style><defs><linearGradient id="eduvyoh75fu8-stroke" x1="113.078436" y1="37.523448" x2="8.844440" y2="37.523448" spreadMethod="pad" gradientUnits="userSpaceOnUse"><stop id="eduvyoh75fu8-stroke-0" offset="0%" stop-color="rgba(225,234,247,0)"/><stop id="eduvyoh75fu8-stroke-1" offset="65%" stop-color="rgba(45,170,229,0.31)"/><stop id="eduvyoh75fu8-stroke-2" offset="100%" stop-color="rgb(0,116,255)"/></linearGradient><linearGradient id="eduvyoh75fu11-fill" x1="0.576491" y1="0.112348" x2="0.417595" y2="0.920564" spreadMethod="pad" gradientUnits="objectBoundingBox"><stop id="eduvyoh75fu11-fill-0" offset="0%" stop-color="rgb(0,167,255)"/><stop id="eduvyoh75fu11-fill-1" offset="100%" stop-color="rgb(71,163,255)"/></linearGradient></defs><path id="eduvyoh75fu2" d="M0,74L152.767699,74.731944C173.132806,74.829517,189.590426,91.366179,189.590426,111.731519L189.590426,267.276309C189.590426,287.710845,206.155890,304.276309,226.590426,304.276309L370,304.276309C394.300529,304.276309,414,323.975780,414,348.276309L414,419.487313C414,436.003956,400.610616,449.393340,384.093973,449.393340C367.577330,449.393340,354.187946,462.782724,354.187946,479.299367L354.187946,578L354.187946,1102.709790C354.187946,1124.522030,336.712777,1142.312890,314.904030,1142.703380L242.487234,1144L242.487234,1144" transform="matrix(1 0 0 -1 -240 1258)" fill="none" fill-rule="evenodd" stroke="#DBE2EB" stroke-width="7" stroke-linecap="round" stroke-linejoin="round"/><path id="eduvyoh75fu3" d="M239.578332,0L930,0C952.091390,0,970,17.908610,970,40L970,328.515219C970,350.606609,987.908610,368.515219,1010,368.515219L1219,368.515219L1219,368.515219L1219,662C1219,684.091390,1201.091390,702,1179,702L173,702L173,702" transform="matrix(1 0 0 1 -240 40)" fill="none" fill-rule="evenodd" stroke="#DBE2EB" stroke-width="7" stroke-linecap="round" stroke-linejoin="round"/><path id="eduvyoh75fu4" d="M1031.912720,671L1031.912720,1150.586880C1031.912720,1172.678270,1049.821330,1190.586880,1071.912720,1190.586880L1243,1190.586880C1265.091390,1190.586880,1283,1208.495490,1283,1230.586880L1283,1267.778800C1283,1289.870190,1265.091390,1307.778800,1243,1307.778800C1242.975700,1307.778800,1242.951400,1307.778780,1242.927100,1307.778740L185,1305.850700L185,1305.850700" transform="matrix(1 0 0 1 -240 40)" fill="none" fill-rule="evenodd" stroke="#DBE2EB" stroke-width="7" stroke-linecap="round" stroke-linejoin="round"/><path id="eduvyoh75fu5" d="M1859.392730,91C1841.928490,91,1824.464240,91,1807,91C1784.908610,91,1767,108.908610,1767,131L1767,437.546605C1767,459.637995,1784.908610,477.546605,1807,477.546605C1807.150280,477.546605,1807.300560,477.545758,1807.450830,477.544064L1900,476.500908L1900,476.500908" transform="matrix(1 0 0 1 -240 40)" fill="none" fill-rule="evenodd" stroke="#DBE2EB" stroke-width="7" stroke-linecap="round" stroke-linejoin="round"/><path id="eduvyoh75fu6" d="M1897.573800,321L1544.374550,321C1522.283160,321,1504.374550,338.908610,1504.374550,361C1504.374550,361.205208,1504.376130,361.410412,1504.379280,361.615595L1509.382240,686.657841C1509.722220,708.746615,1492.091340,726.928715,1470.002570,727.268699C1469.887460,727.270471,1469.772350,727.271746,1469.657230,727.272523L1401.729740,727.731483C1379.744320,727.880030,1362,745.744650,1362,767.730570L1362,806.791338C1362,828.723009,1379.660070,846.564766,1401.590590,846.789243L1763.878190,850.497562C1785.808710,850.722039,1803.468780,868.563796,1803.468780,890.495467L1803.468780,1061.936100C1803.468780,1084.027490,1785.560170,1101.936100,1763.468780,1101.936100L1749.447640,1101.936100C1727.356250,1101.936100,1709.447640,1119.844710,1709.447640,1141.936100L1709.447640,1176C1709.447640,1198.091390,1727.356250,1216,1749.447640,1216L2005.454900,1216C2027.546290,1216,2045.454900,1198.091390,2045.454900,1176C2045.454900,1173.705980,2045.257550,1171.416210,2044.865050,1169.156010" transform="matrix(1 0 0 1 -240 40)" fill="none" fill-rule="evenodd" stroke="#DBE2EB" stroke-width="7" stroke-linecap="round" stroke-linejoin="round"/><path id="eduvyoh75fu7" d="M1024.763130,218L950.074102,218C927.982712,218,910.074102,235.908610,910.074102,258L910.074102,809.158173C910.074102,831.249563,927.982712,849.158173,950.074102,849.158173L1081,849.158173C1103.091390,849.158173,1121,867.066783,1121,889.158173L1121,1104C1121,1126.091390,1103.091390,1144,1081,1144L1010,1144C987.908610,1144,970,1161.908610,970,1184L970,1196.298320C970,1218.389710,952.091390,1236.298320,930,1236.298320L523.710040,1236.298320C501.618650,1236.298320,483.710040,1218.389710,483.710040,1196.298320L483.710040,1124.629970C483.710040,1102.538580,465.801430,1084.629970,443.710040,1084.629970L207,1084.629970L207,1084.629970" transform="matrix(1 0 0 1 -240 40)" fill="none" fill-rule="evenodd" stroke="#DBE2EB" stroke-width="7" stroke-linecap="round" stroke-linejoin="round"/><g id="eduvyoh75fu8_to" transform="translate(-187.925003,40.500000)"><g id="eduvyoh75fu8_tr" transform="rotate(-180)"><line id="eduvyoh75fu8" style="isolation:isolate" x1="3.500000" y1="3.500000" x2="140.650000" y2="3.500000" transform="translate(-72.074997,-3.500000)" fill="none" stroke="url(#eduvyoh75fu8-stroke)" stroke-width="7" stroke-linecap="round" stroke-linejoin="round"/></g></g><g id="eduvyoh75fu9_to" transform="translate(-58.761372,39.074706)"><g id="eduvyoh75fu9_tr" transform="rotate(90)"><g id="eduvyoh75fu9" transform="translate(-19.059882,-58.761372)"><polygon id="eduvyoh75fu10" points="0,117.522745 39.970196,117.522745 39.970196,0 0,0" fill="none" fill-rule="evenodd" stroke="none" stroke-width="1"/><path id="eduvyoh75fu11" d="M31.204353,117.522824L8.765922,117.522824C5.676510,117.522824,3.172196,115.018118,3.172196,111.928706L3.172196,45.890274C3.172196,43.736157,4.918471,41.989882,7.072588,41.989882L32.897686,41.989882C35.052196,41.989882,36.798471,43.736157,36.798471,45.890274L36.798471,111.928706C36.798471,115.018118,34.293765,117.522824,31.204353,117.522824" fill="url(#eduvyoh75fu11-fill)" fill-rule="evenodd" stroke="none" stroke-width="1"/><path id="eduvyoh75fu12" d="M7.930745,109.614588L7.930745,109.614588C7.465255,109.614588,7.088392,109.237333,7.088392,108.772235L7.088392,50.521255C7.088392,50.176941,7.367216,49.898118,7.711137,49.898118L8.150353,49.898118C8.494275,49.898118,8.773098,50.176941,8.773098,50.521255L8.773098,108.772235C8.773098,109.237333,8.396235,109.614588,7.930745,109.614588" fill="rgb(0,121,185)" fill-rule="evenodd" stroke="none" stroke-width="1"/><path id="eduvyoh75fu13" d="M12.752667,109.614588L12.752667,109.614588C12.287176,109.614588,11.910314,109.237333,11.910314,108.772235L11.910314,50.521255C11.910314,50.176941,12.189137,49.898118,12.533059,49.898118L12.971882,49.898118C13.316196,49.898118,13.595020,50.176941,13.595020,50.521255L13.595020,108.772235C13.595020,109.237333,13.218157,109.614588,12.752667,109.614588" fill="rgb(0,121,185)" fill-rule="evenodd" stroke="none" stroke-width="1"/><path id="eduvyoh75fu14" d="M17.574196,109.614588L17.574196,109.614588C17.108706,109.614588,16.731843,109.237333,16.731843,108.772235L16.731843,50.521255C16.731843,50.176941,17.010667,49.898118,17.354980,49.898118L17.793804,49.898118C18.137725,49.898118,18.416941,50.176941,18.416941,50.521255L18.416941,108.772235C18.416941,109.237333,18.039686,109.614588,17.574196,109.614588" fill="rgb(0,121,185)" fill-rule="evenodd" stroke="none" stroke-width="1"/><path id="eduvyoh75fu15" d="M22.396118,109.614588L22.396118,109.614588C21.930627,109.614588,21.553765,109.237333,21.553765,108.772235L21.553765,50.521255C21.553765,50.176941,21.832588,49.898118,22.176510,49.898118L22.615725,49.898118C22.959647,49.898118,23.238471,50.176941,23.238471,50.521255L23.238471,108.772235C23.238471,109.237333,22.861608,109.614588,22.396118,109.614588" fill="rgb(0,121,185)" fill-rule="evenodd" stroke="none" stroke-width="1"/><path id="eduvyoh75fu16" d="M27.217686,109.614588L27.217686,109.614588C26.752196,109.614588,26.375333,109.237333,26.375333,108.772235L26.375333,50.521255C26.375333,50.176941,26.654157,49.898118,26.998471,49.898118L27.437294,49.898118C27.781216,49.898118,28.060431,50.176941,28.060431,50.521255L28.060431,108.772235C28.060431,109.237333,27.683176,109.614588,27.217686,109.614588" fill="rgb(0,121,185)" fill-rule="evenodd" stroke="none" stroke-width="1"/><path id="eduvyoh75fu17" d="M32.039608,109.614588L32.039608,109.614588C31.574118,109.614588,31.197255,109.237333,31.197255,108.772235L31.197255,50.521255C31.197255,50.176941,31.476078,49.898118,31.820000,49.898118L32.259216,49.898118C32.603137,49.898118,32.881961,50.176941,32.881961,50.521255L32.881961,108.772235C32.881961,109.237333,32.505098,109.614588,32.039608,109.614588" fill="rgb(0,121,185)" fill-rule="evenodd" stroke="none" stroke-width="1"/><path id="eduvyoh75fu18" d="M11.356000,39.566510L28.615216,39.566510C29.284627,39.566510,29.826980,40.108863,29.826980,40.778275C29.826980,41.447294,29.284627,41.990039,28.615216,41.990039L11.356000,41.990039C10.686588,41.990039,10.144235,41.447294,10.144235,40.778275C10.144235,40.108863,10.686588,39.566510,11.356000,39.566510" fill="rgb(34,43,50)" fill-rule="evenodd" stroke="none" stroke-width="1"/><polygon id="eduvyoh75fu19" points="11.087843,41.989804 28.883137,41.989804 28.883137,38.565882 11.087843,38.565882" fill="rgb(59,70,78)" fill-rule="evenodd" stroke="none" stroke-width="1"/><polygon id="eduvyoh75fu20" points="12.892549,41.989804 27.078823,41.989804 27.078823,38.565882 12.892549,38.565882" fill="rgb(34,43,50)" fill-rule="evenodd" stroke="none" stroke-width="1"/><path id="eduvyoh75fu21" d="M14.752510,39.348039L25.218392,39.348039C25.732118,39.348039,26.148588,39.764510,26.148588,40.277843C26.148588,40.791569,25.732118,41.207647,25.218392,41.207647L14.752510,41.207647C14.238784,41.207647,13.822706,40.791569,13.822706,40.277843C13.822706,39.764510,14.238784,39.348039,14.752510,39.348039" fill="rgb(99,112,121)" fill-rule="evenodd" stroke="none" stroke-width="1"/><path id="eduvyoh75fu22" d="M33.096588,6.613843L6.874627,6.613843C5.454235,6.613843,4.595804,5.047569,5.353843,3.846000C6.598549,1.874627,8.796196,0.565216,11.299333,0.565216L11.392667,0.565216L11.392667,4.600118L28.576588,4.600118L28.576588,0.565216L28.669922,0.565216C31.174235,0.565216,33.372667,1.874627,34.617373,3.846000C35.375804,5.047176,34.516980,6.613843,33.096588,6.613843" fill="rgb(211,47,47)" fill-rule="evenodd" stroke="none" stroke-width="1"/><path id="eduvyoh75fu23" d="M31.357922,38.746784L8.612431,38.746784C6.547333,38.746784,4.873216,37.072667,4.873216,35.007569L4.873216,8.066000C4.873216,4.333843,7.899098,1.307961,11.631255,1.307961L28.339098,1.307961C32.071255,1.307961,35.097137,4.333843,35.097137,8.066000L35.097137,35.007569C35.097137,37.072667,33.423412,38.746784,31.357922,38.746784" fill="rgb(216,226,231)" fill-rule="evenodd" stroke="none" stroke-width="1"/><path id="eduvyoh75fu24" d="M29.729529,12.615490C29.729529,17.997059,25.366784,22.359804,19.985216,22.359804C14.603647,22.359804,10.240902,17.997059,10.240902,12.615490C10.240902,7.233922,14.603647,2.871176,19.985216,2.871176C25.366784,2.871176,29.729529,7.233922,29.729529,12.615490" fill="rgb(225,234,239)" fill-rule="evenodd" stroke="none" stroke-width="1"/><path id="eduvyoh75fu25" d="M33.406000,24.416980L6.564431,24.416980L6.564431,19.280510C6.564431,15.922078,9.286784,13.200118,12.644823,13.200118L27.325608,13.200118C30.683647,13.200118,33.406000,15.922078,33.406000,19.280510L33.406000,24.416980Z" fill="rgb(171,191,206)" fill-rule="evenodd" stroke="none" stroke-width="1"/><path id="eduvyoh75fu26" d="M29.683216,36.671882L10.287137,36.671882C8.222039,36.671882,6.548314,34.997765,6.548314,32.933059L6.548314,24.809137C6.548314,21.921686,8.889490,19.580510,11.776941,19.580510L28.193412,19.580510C31.080863,19.580510,33.422039,21.921686,33.422039,24.809137L33.422039,32.933059C33.422039,34.997765,31.748314,36.671882,29.683216,36.671882" fill="rgb(225,234,239)" fill-rule="evenodd" stroke="none" stroke-width="1"/><path id="eduvyoh75fu27" d="M28.764078,1.308078L11.206431,1.308078L11.206431,0.924157C11.206431,0.413569,11.619765,0.000235,12.130353,0.000235L27.840157,0.000235C28.350353,0.000235,28.764078,0.413569,28.764078,0.924157L28.764078,1.308078Z" fill="rgb(34,43,50)" fill-rule="evenodd" stroke="none" stroke-width="1"/><path id="eduvyoh75fu28" d="M3.741490,18.760588L0.462275,18.760588C0.206980,18.760588,-0.000078,18.967647,-0.000078,19.222941L-0.000078,19.565294C-0.000078,19.820588,0.206980,20.027255,0.462275,20.027255L3.741490,20.027255C3.996784,20.027255,4.203843,19.820588,4.203843,19.565294L4.203843,19.222941C4.203843,18.967647,3.996784,18.760588,3.741490,18.760588" fill="rgb(228,237,241)" fill-rule="evenodd" stroke="none" stroke-width="1"/><path id="eduvyoh75fu29" d="M5.645216,18.176549L2.571882,18.176549C2.312275,18.176549,2.102078,18.387137,2.102078,18.646745C2.102078,18.905961,2.312275,19.116549,2.571882,19.116549L5.645216,19.116549C5.904824,19.116549,6.115020,18.905961,6.115020,18.646745C6.115020,18.387137,5.904824,18.176549,5.645216,18.176549" fill="rgb(190,201,210)" fill-rule="evenodd" stroke="none" stroke-width="1"/><path id="eduvyoh75fu30" d="M36.228863,18.760588L39.508078,18.760588C39.763765,18.760588,39.970431,18.967647,39.970431,19.222941L39.970431,19.565294C39.970431,19.820588,39.763765,20.027255,39.508078,20.027255L36.228863,20.027255C35.973569,20.027255,35.766510,19.820588,35.766510,19.565294L35.766510,19.222941C35.766510,18.967647,35.973569,18.760588,36.228863,18.760588" fill="rgb(228,237,241)" fill-rule="evenodd" stroke="none" stroke-width="1"/><path id="eduvyoh75fu31" d="M34.325137,18.176549L37.398471,18.176549C37.658078,18.176549,37.868274,18.387137,37.868274,18.646745C37.868274,18.905961,37.658078,19.116549,37.398471,19.116549L34.325137,19.116549C34.065529,19.116549,33.855333,18.905961,33.855333,18.646745C33.855333,18.387137,34.065529,18.176549,34.325137,18.176549" fill="rgb(190,201,210)" fill-rule="evenodd" stroke="none" stroke-width="1"/><path id="eduvyoh75fu32" d="M10.648667,35.178706L10.648667,35.178706C10.137294,35.178706,9.723176,34.764196,9.723176,34.253216L9.723176,24.595961C9.723176,24.084980,10.137294,23.670471,10.648667,23.670471C11.160039,23.670471,11.574157,24.084980,11.574157,24.595961L11.574157,34.253216C11.574157,34.764196,11.160039,35.178706,10.648667,35.178706" fill="rgb(202,214,221)" fill-rule="evenodd" stroke="none" stroke-width="1"/><path id="eduvyoh75fu33" d="M13.761020,35.178706L13.761020,35.178706C13.249647,35.178706,12.835529,34.764196,12.835529,34.253216L12.835529,24.595961C12.835529,24.084980,13.249647,23.670471,13.761020,23.670471C14.272392,23.670471,14.686510,24.084980,14.686510,24.595961L14.686510,34.253216C14.686510,34.764196,14.272392,35.178706,13.761020,35.178706" fill="rgb(202,214,221)" fill-rule="evenodd" stroke="none" stroke-width="1"/><path id="eduvyoh75fu34" d="M16.873372,35.178706L16.873372,35.178706C16.362000,35.178706,15.947882,34.764196,15.947882,34.253216L15.947882,24.595961C15.947882,24.084980,16.362000,23.670471,16.873372,23.670471C17.384745,23.670471,17.798863,24.084980,17.798863,24.595961L17.798863,34.253216C17.798863,34.764196,17.384745,35.178706,16.873372,35.178706" fill="rgb(202,214,221)" fill-rule="evenodd" stroke="none" stroke-width="1"/><path id="eduvyoh75fu35" d="M19.985765,35.178706L19.985765,35.178706C19.474392,35.178706,19.059882,34.764196,19.059882,34.253216L19.059882,24.595961C19.059882,24.084980,19.474392,23.670471,19.985765,23.670471C20.497137,23.670471,20.911255,24.084980,20.911255,24.595961L20.911255,34.253216C20.911255,34.764196,20.497137,35.178706,19.985765,35.178706" fill="rgb(202,214,221)" fill-rule="evenodd" stroke="none" stroke-width="1"/><path id="eduvyoh75fu36" d="M23.098118,35.178706L23.098118,35.178706C22.586745,35.178706,22.172235,34.764196,22.172235,34.253216L22.172235,24.595961C22.172235,24.084980,22.586745,23.670471,23.098118,23.670471C23.609098,23.670471,24.023608,24.084980,24.023608,24.595961L24.023608,34.253216C24.023608,34.764196,23.609098,35.178706,23.098118,35.178706" fill="rgb(202,214,221)" fill-rule="evenodd" stroke="none" stroke-width="1"/><path id="eduvyoh75fu37" d="M26.210078,35.178706L26.210078,35.178706C25.698706,35.178706,25.284588,34.764196,25.284588,34.253216L25.284588,24.595961C25.284588,24.084980,25.698706,23.670471,26.210078,23.670471C26.721451,23.670471,27.135961,24.084980,27.135961,24.595961L27.135961,34.253216C27.135961,34.764196,26.721451,35.178706,26.210078,35.178706" fill="rgb(202,214,221)" fill-rule="evenodd" stroke="none" stroke-width="1"/><path id="eduvyoh75fu38" d="M29.322431,35.178706L29.322431,35.178706C28.811059,35.178706,28.396941,34.764196,28.396941,34.253216L28.396941,24.595961C28.396941,24.084980,28.811059,23.670471,29.322431,23.670471C29.833804,23.670471,30.248314,24.084980,30.248314,24.595961L30.248314,34.253216C30.248314,34.764196,29.833804,35.178706,29.322431,35.178706" fill="rgb(202,214,221)" fill-rule="evenodd" stroke="none" stroke-width="1"/></g></g></g></svg>